<svg width="27" height="27" viewBox="0 0 27 27" fill="none" xmlns="http://www.w3.org/2000/svg">
<path d="M13.7,0.8C6.7,0.8,1.2,6.4,1.2,13.4c0,3,2.8,7.9,2.8,7.9l-1.5,4.5l5.7-1.1c0,0,3.5,1.3,5.4,1.3	c6.9,0,12.5-5.6,12.5-12.5C26.2,6.4,20.6,0.8,13.7,0.8z" stroke="white"/>
<path fill-rule="evenodd" clip-rule="evenodd" fill="white" d="M11.7,7.1c-0.1-0.6-0.3-0.6-0.6-0.7c-0.2,0-0.4-0.1-0.6-0.1c-0.2,0-0.5,0-0.9,0.2C9.4,6.8,8.5,7.5,8.2,9	c-0.3,1.6,0.5,3.3,0.6,3.5c0.1,0.2,1.4,3.9,4.1,5.7c2.3,1.5,2.8,1.4,3.4,1.5c0.6,0,1.9-0.4,2.3-1.1c0.4-0.7,0.5-1.3,0.5-1.5	c0-0.1-0.2-0.3-0.5-0.5c-0.3-0.2-1.6-1.3-1.8-1.4c-0.2-0.2-0.4-0.2-0.7,0c-0.3,0.3-1,0.9-1.2,1.1c-0.2,0.2-0.4,0.2-0.7,0	c-0.3-0.2-1.1-0.7-2.1-2c-0.7-1-1.1-2.2-1.2-2.5c-0.1-0.3,0.1-0.5,0.3-0.6c0.2-0.1,0.4-0.3,0.5-0.5c0.2-0.2,0.3-0.3,0.4-0.5	c0.1-0.2,0.1-0.4,0.1-0.6C12.1,9.5,11.9,7.8,11.7,7.1z"/>
</svg>
