<svg width="27" height="27" fill="none" xmlns="http://www.w3.org/2000/svg"><path d="M13.7.8C6.7.8 1.2 6.4 1.2 13.4c0 3 2.8 7.9 2.8 7.9l-1.5 4.5 5.7-1.1s3.5 1.3 5.4 1.3c6.9 0 12.5-5.6 12.5-12.5C26.2 6.4 20.6.8 13.7.8z" stroke="#fff"/><path fill-rule="evenodd" clip-rule="evenodd" fill="#fff" d="M11.7 7.1c-.1-.6-.3-.6-.6-.7-.2 0-.4-.1-.6-.1-.2 0-.5 0-.9.2-.2.3-1.1 1-1.4 2.5-.3 1.6.5 3.3.6 3.5.1.2 1.4 3.9 4.1 5.7 2.3 1.5 2.8 1.4 3.4 1.5.6 0 1.9-.4 2.3-1.1.4-.7.5-1.3.5-1.5 0-.1-.2-.3-.5-.5s-1.6-1.3-1.8-1.4c-.2-.2-.4-.2-.7 0-.3.3-1 .9-1.2 1.1-.2.2-.4.2-.7 0-.3-.2-1.1-.7-2.1-2-.7-1-1.1-2.2-1.2-2.5-.1-.3.1-.5.3-.6.2-.1.4-.3.5-.5.2-.2.3-.3.4-.5.1-.2.1-.4.1-.6-.1-.1-.3-1.8-.5-2.5z"/></svg>