<svg width="96" height="29" fill="none" xmlns="http://www.w3.org/2000/svg"><path d="M1.54 25.88h.06a.218.218 0 00.156-.072.64.64 0 00.12-.168.648.648 0 00.084-.204c.016-.08.024-.152.024-.216v-6.384a.897.897 0 00-.024-.192.648.648 0 00-.084-.204.4.4 0 00-.132-.168.23.23 0 00-.168-.072h-.06v-.12h1.968c.744 0 1.324.164 1.74.492.424.328.636.764.636 1.308 0 .232-.04.44-.12.624-.08.184-.184.348-.312.492-.12.144-.252.268-.396.372-.144.096-.28.176-.408.24.336.064.616.172.84.324a2 2 0 01.54.528c.144.192.244.4.3.624.056.224.084.444.084.66 0 .416-.076.768-.228 1.056a2.05 2.05 0 01-.612.696 2.5 2.5 0 01-.864.384c-.32.08-.652.12-.996.12H1.54v-.12zm4.032-2.064c-.064-.616-.272-1.092-.624-1.428-.352-.336-.848-.504-1.488-.504h-.672v3.72h.696c.648 0 1.156-.144 1.524-.432.376-.296.564-.704.564-1.224v-.132zm-.492-3.828c-.024-.464-.188-.832-.492-1.104-.296-.272-.696-.408-1.2-.408h-.6V21.5h.624c.336 0 .608-.044.816-.132.216-.088.388-.2.516-.336.128-.144.216-.3.264-.468.048-.168.072-.332.072-.492v-.084zm3.051 5.892h.06c.064 0 .12-.02.168-.06a.64.64 0 00.12-.168.648.648 0 00.084-.204.646.646 0 00.036-.204v-6.42a.616.616 0 00-.036-.192.648.648 0 00-.084-.204.477.477 0 00-.12-.156.23.23 0 00-.168-.072h-.06v-.12h4.62v1.116h-.12a.78.78 0 00-.216-.48c-.128-.144-.328-.216-.6-.216H9.403v3.036h1.992a.642.642 0 00.456-.168.511.511 0 00.192-.396h.12v1.5h-.12a.477.477 0 00-.18-.372.689.689 0 00-.468-.156H9.403v3.636h2.628a.716.716 0 00.396-.108 1.05 1.05 0 00.444-.576c.04-.12.06-.22.06-.3h.12V26h-4.92v-.12zm10.37-7.488c-.592 0-1.108.108-1.548.324a3.193 3.193 0 00-1.08.828 3.43 3.43 0 00-.648 1.14 4.108 4.108 0 00-.204 1.26c0 .472.092.936.276 1.392.184.448.436.848.756 1.2.328.344.708.624 1.14.84a3.117 3.117 0 001.908.264c.2-.032.396-.092.588-.18.192-.096.368-.228.528-.396a1.62 1.62 0 00.384-.66h.12v1.332c-.12 0-.248.016-.384.048l-.432.108c-.208.056-.44.108-.696.156a4.165 4.165 0 01-.792.072c-.696 0-1.308-.12-1.836-.36a4.019 4.019 0 01-1.32-.936 3.878 3.878 0 01-.792-1.296 4.323 4.323 0 01-.264-1.476c0-.496.088-.988.264-1.476a3.76 3.76 0 01.804-1.308c.36-.392.812-.708 1.356-.948s1.184-.36 1.92-.36c.264 0 .5.024.708.072.216.048.408.096.576.144.12.04.228.072.324.096.104.016.204.024.3.024v1.332h-.12a1.383 1.383 0 00-.72-.996 1.79 1.79 0 00-.552-.18c-.192-.04-.38-.06-.564-.06zm8.76 7.488h.06c.056 0 .108-.02.156-.06a.64.64 0 00.12-.168.804.804 0 00.084-.216c.016-.08.024-.152.024-.216v-3.264h-3.84v3.264c0 .064.008.136.024.216a.882.882 0 00.18.372.23.23 0 00.168.072h.06V26h-1.68v-.12h.06c.056 0 .108-.02.156-.06a.64.64 0 00.12-.168.804.804 0 00.084-.216c.016-.08.024-.152.024-.216v-6.396a.897.897 0 00-.024-.192.882.882 0 00-.072-.204.477.477 0 00-.12-.156.23.23 0 00-.168-.072h-.06v-.12h1.68v.12h-.06a.23.23 0 00-.168.072.477.477 0 00-.12.156 1.519 1.519 0 00-.06.204.897.897 0 00-.024.192v2.712h3.84v-2.712a.897.897 0 00-.024-.192.882.882 0 00-.072-.204.477.477 0 00-.12-.156.23.23 0 00-.168-.072h-.06v-.12h1.68v.12h-.06a.23.23 0 00-.168.072.477.477 0 00-.12.156 1.519 1.519 0 00-.06.204.897.897 0 00-.024.192v6.396c0 .064.008.136.024.216.024.072.052.14.084.204.032.064.068.12.108.168.048.048.1.072.156.072h.06V26h-1.68v-.12zm7.981 0h.06c.192 0 .288-.088.288-.264a.646.646 0 00-.036-.204l-1.08-2.916h-2.1l-1.044 2.868a.514.514 0 00-.036.18c0 .104.028.188.084.252a.252.252 0 00.18.084h.06V26h-1.332v-.12h.06c.104 0 .204-.06.3-.18.104-.128.188-.276.252-.444l2.748-7.32 2.688 7.248c.056.16.132.316.228.468.104.152.236.228.396.228h.06V26h-1.776v-.12zm-2.748-3.792h1.848l-.924-2.508-.924 2.508zm9.8 3.792h.06a.218.218 0 00.156-.072.64.64 0 00.12-.168.648.648 0 00.084-.204c.016-.08.024-.152.024-.216v-6.384a.897.897 0 00-.024-.192.648.648 0 00-.084-.204.4.4 0 00-.132-.168.23.23 0 00-.168-.072h-.06v-.12h1.968c.744 0 1.324.164 1.74.492.424.328.636.764.636 1.308 0 .232-.04.44-.12.624-.08.184-.184.348-.312.492-.12.144-.252.268-.396.372-.144.096-.28.176-.408.24.336.064.616.172.84.324a2 2 0 01.54.528c.144.192.244.4.3.624.056.224.084.444.084.66 0 .416-.076.768-.228 1.056a2.05 2.05 0 01-.612.696 2.5 2.5 0 01-.864.384c-.32.08-.652.12-.996.12h-2.148v-.12zm4.032-2.064c-.064-.616-.272-1.092-.624-1.428-.352-.336-.848-.504-1.488-.504h-.672v3.72h.696c.648 0 1.156-.144 1.524-.432.376-.296.564-.704.564-1.224v-.132zm-.492-3.828c-.024-.464-.188-.832-.492-1.104-.296-.272-.696-.408-1.2-.408h-.6V21.5h.624c.336 0 .608-.044.816-.132.216-.088.388-.2.516-.336.128-.144.216-.3.264-.468.048-.168.072-.332.072-.492v-.084zm6.853-1.596c-.592 0-1.108.108-1.548.324a3.193 3.193 0 00-1.08.828 3.43 3.43 0 00-.648 1.14 4.108 4.108 0 00-.204 1.26c0 .472.092.936.276 1.392.184.448.436.848.756 1.2.328.344.708.624 1.14.84a3.117 3.117 0 001.908.264c.2-.032.396-.092.588-.18.192-.096.368-.228.528-.396a1.62 1.62 0 00.384-.66h.12v1.332c-.12 0-.248.016-.384.048l-.432.108c-.208.056-.44.108-.696.156a4.165 4.165 0 01-.792.072c-.696 0-1.308-.12-1.836-.36a4.019 4.019 0 01-1.32-.936 3.878 3.878 0 01-.792-1.296 4.323 4.323 0 01-.264-1.476c0-.496.088-.988.264-1.476a3.76 3.76 0 01.804-1.308c.36-.392.812-.708 1.356-.948s1.184-.36 1.92-.36c.264 0 .5.024.708.072.216.048.408.096.576.144.12.04.228.072.324.096.104.016.204.024.3.024v1.332h-.12a1.383 1.383 0 00-.72-.996 1.79 1.79 0 00-.552-.18c-.192-.04-.38-.06-.564-.06zm3.972 7.488h.06c.064 0 .12-.02.168-.06a.64.64 0 00.12-.168.648.648 0 00.084-.204.646.646 0 00.036-.204v-6.42a.616.616 0 00-.036-.192.648.648 0 00-.084-.204.477.477 0 00-.12-.156.23.23 0 00-.168-.072h-.06v-.12h4.62v1.116h-.12a.78.78 0 00-.216-.48c-.128-.144-.328-.216-.6-.216h-2.412v3.036h1.992a.642.642 0 00.456-.168.511.511 0 00.192-.396h.12v1.5h-.12a.477.477 0 00-.18-.372.689.689 0 00-.468-.156h-1.992v3.636h2.628a.716.716 0 00.396-.108 1.05 1.05 0 00.444-.576c.04-.12.06-.22.06-.3h.12V26h-4.92v-.12zm8.213 0h.06V26h-1.728v-.12h.06c.064 0 .12-.02.168-.06a.64.64 0 00.12-.168.648.648 0 00.084-.204.942.942 0 00.024-.204v-6.42a.897.897 0 00-.024-.192.648.648 0 00-.084-.204.477.477 0 00-.12-.156.23.23 0 00-.168-.072h-.06v-.12h4.62v1.272h-.12c0-.288-.064-.5-.192-.636-.12-.144-.312-.216-.576-.216h-2.46v6.744a.942.942 0 00.096.408c.04.064.084.12.132.168.048.04.104.06.168.06zm9.701-.3v1.5h-.12a1.285 1.285 0 00-.084-.348 1.345 1.345 0 00-.204-.36 1.134 1.134 0 00-.288-.264.674.674 0 00-.372-.108h-5.532a.674.674 0 00-.372.108 1.64 1.64 0 00-.3.276 1.99 1.99 0 00-.204.36c-.048.128-.076.24-.084.336h-.12v-1.5h.528c.256 0 .436-.148.54-.444l2.76-7.236 2.784 7.2c.056.12.132.232.228.336a.46.46 0 00.336.144h.504zm-6.348 0h4.62l-2.316-5.964-2.304 5.964zm12.628.3h.06c.192 0 .288-.088.288-.264a.646.646 0 00-.036-.204l-1.08-2.916h-2.1l-1.044 2.868a.514.514 0 00-.036.18c0 .104.028.188.084.252a.252.252 0 00.18.084h.06V26h-1.332v-.12h.06c.104 0 .204-.06.3-.18.104-.128.188-.276.252-.444l2.748-7.32 2.688 7.248c.056.16.132.316.228.468.104.152.236.228.396.228h.06V26h-1.776v-.12zm-2.748-3.792h1.848l-.924-2.508-.924 2.508z" fill="#fff"/><path d="M43.846 5.665c0 1.413-.672 2.725-1.386 3.714a10.648 10.648 0 01-1.076 1.264 10.659 10.659 0 01-1.076-1.265c-.714-.988-1.387-2.3-1.387-3.713 0-1.412.673-2.725 1.387-3.713A10.658 10.658 0 0141.384.688l.104.105c.265.274.619.67.972 1.16.714.987 1.386 2.3 1.386 3.712z" stroke="#fff"/><path d="M40.107 5.67c.857 1 1.202 2.475 1.318 3.77a13.176 13.176 0 01.033 1.846 8.283 8.283 0 01-1.58-.038c-1.108-.136-2.37-.54-3.226-1.54-.857-1-1.201-2.475-1.318-3.77a13.176 13.176 0 01-.033-1.846 8.276 8.276 0 011.58.038c1.109.136 2.37.539 3.226 1.54zm3.376 0c-.857 1-1.202 2.475-1.318 3.77a13.193 13.193 0 00-.033 1.846 8.283 8.283 0 001.58-.038c1.108-.136 2.37-.54 3.226-1.54.856-1 1.201-2.475 1.318-3.77a13.176 13.176 0 00.032-1.846 8.274 8.274 0 00-1.58.038c-1.108.136-2.37.539-3.225 1.54zM28.358 8.083H0m83 0H54.642" stroke="#fff"/></svg>