<?xml version="1.0" encoding="utf-8"?><svg viewBox="0 0 27 27" xmlns="http://www.w3.org/2000/svg" xmlns:xlink="http://www.w3.org/1999/xlink"><style>:root>svg{display:none}:root>svg:target{display:block}</style><svg viewBox="0 0 25 25" id="social-icon-fb" xmlns="http://www.w3.org/2000/svg"><rect x=".5" y=".5" width="24" height="24" rx="3.5" stroke="#fff"/><path d="M15.63 12.2h-1.963V20H10.75v-7.8H9V9.8h1.75V8.354C10.752 6.249 11.602 5 14.013 5H16v2.4h-1.333c-.939 0-1 .36-1 1.034V9.8H16l-.37 2.4z" fill="currentColor"/></svg><svg viewBox="0 0 25 25" id="social-icon-inst" xmlns="http://www.w3.org/2000/svg"><rect x=".5" y=".5" width="24" height="24" rx="3.5" stroke="#fff"/><circle cx="12.5" cy="12.5" r="5" stroke="currentColor"/><circle cx="19.5" cy="5.5" r="1.5" stroke="currentColor" fill="currentColor"/></svg><svg viewBox="0 0 25 26" id="social-icon-vk" xmlns="http://www.w3.org/2000/svg"><rect x=".5" y="1.167" width="24" height="24" rx="3.5" stroke="#fff"/><path fill="currentColor" d="M18.348 15.215c1.207 1.17 1.458 1.741 1.499 1.811.498.867-.553.935-.553.935l-2.012.03s-.435.09-1.003-.32c-.754-.54-1.784-1.945-2.336-1.762-.562.185-.383 1.659-.383 1.659s.005.18-.122.325c-.14.153-.412.094-.412.094h-.58s-2.148.01-3.9-1.898C6.637 14.01 5.04 10.123 5.04 10.123s-.097-.247.007-.378c.12-.147.444-.145.444-.145h2.153s.201.028.346.14c.122.092.188.265.188.265s.26.724.722 1.559c.899 1.626 1.318 1.982 1.623 1.806.444-.255.31-2.298.31-2.298s.01-.743-.224-1.074c-.18-.257-.518-.332-.667-.354-.123-.014.077-.309.335-.44.387-.197 1.073-.211 1.88-.202.63.007.868-.002.868-.002.742.187.491.914.491 2.648 0 .558-.097 1.34.288 1.598.165.115.758.132 1.765-1.661.48-.85.858-1.65.858-1.65s.082-.18.202-.255c.127-.08.294-.08.294-.08l2.266.012s.682-.09.79.234c.116.337-.278.928-1.202 2.22-1.521 2.12-1.69 1.923-.43 3.149z"/></svg><svg viewBox="0 0 27 27" id="social-icon-wapp" xmlns="http://www.w3.org/2000/svg"><path d="M13.7.8C6.7.8 1.2 6.4 1.2 13.4c0 3 2.8 7.9 2.8 7.9l-1.5 4.5 5.7-1.1s3.5 1.3 5.4 1.3c6.9 0 12.5-5.6 12.5-12.5C26.2 6.4 20.6.8 13.7.8z" stroke="#fff"/><path fill-rule="evenodd" clip-rule="evenodd" fill="currentColor" d="M11.7 7.1c-.1-.6-.3-.6-.6-.7-.2 0-.4-.1-.6-.1-.2 0-.5 0-.9.2-.2.3-1.1 1-1.4 2.5-.3 1.6.5 3.3.6 3.5.1.2 1.4 3.9 4.1 5.7 2.3 1.5 2.8 1.4 3.4 1.5.6 0 1.9-.4 2.3-1.1.4-.7.5-1.3.5-1.5 0-.1-.2-.3-.5-.5s-1.6-1.3-1.8-1.4c-.2-.2-.4-.2-.7 0-.3.3-1 .9-1.2 1.1-.2.2-.4.2-.7 0-.3-.2-1.1-.7-2.1-2-.7-1-1.1-2.2-1.2-2.5-.1-.3.1-.5.3-.6.2-.1.4-.3.5-.5.2-.2.3-.3.4-.5.1-.2.1-.4.1-.6-.1-.1-.3-1.8-.5-2.5z"/></svg></svg>