<svg width="1646" height="151" fill="none" xmlns="http://www.w3.org/2000/svg"><path opacity=".03" d="M.073 145.8h1.1c1.173 0 2.2-.44 3.08-1.32a11.75 11.75 0 002.2-3.08 11.868 11.868 0 001.54-3.74c.293-1.467.44-2.787.44-3.96V16.44c0-1.027-.147-2.2-.44-3.52a11.871 11.871 0 00-1.54-3.74c-.587-1.173-1.32-2.127-2.2-2.86C3.373 5.44 2.42 5 1.393 5h-1.1V2.8h31.24V5h-1.1c-1.173 0-2.2.44-3.08 1.32-.88.733-1.687 1.687-2.42 2.86a28.519 28.519 0 00-1.54 3.74c-.293 1.32-.44 2.493-.44 3.52v45.54l51.04-50.82c1.173-1.173 1.76-2.567 1.76-4.18 0-1.32-.587-1.98-1.76-1.98V2.8h23.76V5c-2.933.147-5.573 1.027-7.92 2.64-2.2 1.613-4.62 3.74-7.26 6.38l-52.14 52.14c9.533.293 17.233 2.347 23.1 6.16 5.867 3.813 10.487 9.093 13.86 15.84l17.38 35.2c1.027 2.2 2.347 4.62 3.96 7.26a88.838 88.838 0 005.72 7.26c2.2 2.2 4.62 4.107 7.26 5.72 2.64 1.467 5.427 2.2 8.36 2.2v2.2h-11c-4.253 0-7.92-.587-11-1.76-3.08-1.32-5.793-3.007-8.14-5.06-2.2-2.2-4.18-4.62-5.94-7.26-1.613-2.64-3.08-5.28-4.4-7.92l-17.82-35.42c-2.787-5.427-6.673-9.533-11.66-12.32-4.84-2.933-10.56-4.547-17.16-4.84v60.28c0 1.173.147 2.42.44 3.74a20.87 20.87 0 001.32 3.96c.587 1.173 1.32 2.2 2.2 3.08.88.733 1.833 1.173 2.86 1.32h1.54v2.2H.073v-2.2zm220.346 0h1.1c3.52 0 5.28-1.613 5.28-4.84 0-1.173-.22-2.42-.66-3.74l-19.8-53.46h-38.5l-19.14 52.58c-.44 1.173-.66 2.273-.66 3.3 0 1.907.513 3.447 1.54 4.62 1.026 1.027 2.126 1.54 3.3 1.54h1.1v2.2h-24.42v-2.2h1.1c1.906 0 3.74-1.1 5.5-3.3 1.906-2.347 3.446-5.06 4.62-8.14L191.159.16l49.28 132.88c1.026 2.933 2.42 5.793 4.18 8.58 1.906 2.787 4.326 4.18 7.26 4.18h1.1v2.2h-32.56v-2.2zm-50.38-69.52h33.88l-16.94-45.98-16.94 45.98zm144.555 69.52h1.1v2.2h-31.24v-2.2h1.1c1.173 0 2.2-.44 3.08-1.32.88-.88 1.613-1.907 2.2-3.08a11.868 11.868 0 001.54-3.74c.293-1.467.44-2.787.44-3.96V10.94h-25.52c-2.347 0-4.4.513-6.16 1.54a14.25 14.25 0 00-4.4 3.96c-1.173 1.467-2.053 3.153-2.64 5.06a16.6 16.6 0 00-.88 5.28h-2.2V2.8h98.78v23.98h-2.2a16.6 16.6 0 00-.88-5.28c-.587-1.907-1.467-3.593-2.64-5.06a14.25 14.25 0 00-4.4-3.96c-1.76-1.027-3.813-1.54-6.16-1.54h-25.96V133.7c0 1.173.147 2.493.44 3.96.293 1.32.733 2.567 1.32 3.74a28.01 28.01 0 002.2 3.08c.88.88 1.907 1.32 3.08 1.32zm124.08 0h1.1c3.52 0 5.28-1.613 5.28-4.84 0-1.173-.22-2.42-.66-3.74l-19.8-53.46h-38.5l-19.14 52.58c-.44 1.173-.66 2.273-.66 3.3 0 1.907.513 3.447 1.54 4.62 1.027 1.027 2.127 1.54 3.3 1.54h1.1v2.2h-24.42v-2.2h1.1c1.907 0 3.74-1.1 5.5-3.3 1.907-2.347 3.447-5.06 4.62-8.14L409.414.16l49.28 132.88c1.027 2.933 2.42 5.793 4.18 8.58 1.907 2.787 4.327 4.18 7.26 4.18h1.1v2.2h-32.56v-2.2zm-50.38-69.52h33.88l-16.94-45.98-16.94 45.98zM516.3 132.6c-1.32 3.813-3.374 7.333-6.16 10.56-2.787 3.227-6.894 4.84-12.32 4.84H491v-2.2c.88 0 2.053-.22 3.52-.66 1.466-.587 3.006-1.467 4.62-2.64 1.613-1.173 3.226-2.64 4.84-4.4 1.613-1.907 3.006-4.253 4.18-7.04L549.74 17.1c.733-2.2 1.1-3.887 1.1-5.06 0-2.2-.66-3.887-1.98-5.06-1.174-1.32-2.42-1.98-3.74-1.98V2.8h18.04l49.28 134.64c.733 2.053 2.126 3.96 4.18 5.72 2.053 1.613 4.326 2.493 6.82 2.64v2.2h-31.46v-2.2c1.173 0 2.346-.44 3.52-1.32 1.32-1.027 1.98-2.347 1.98-3.96 0-.44-.147-1.1-.44-1.98L555.68 24.58 516.3 132.6zM727.166.6c11.44 0 21.707 2.053 30.8 6.16 9.094 3.96 16.794 9.387 23.1 16.28 6.453 6.747 11.367 14.667 14.74 23.76 3.52 8.947 5.28 18.333 5.28 28.16 0 11-2.053 21.12-6.16 30.36-3.96 9.24-9.46 17.16-16.5 23.76-7.04 6.6-15.253 11.807-24.64 15.62-9.24 3.667-19.14 5.5-29.7 5.5-11.293 0-21.487-2.053-30.58-6.16-8.947-4.107-16.573-9.533-22.88-16.28-6.16-6.747-10.927-14.52-14.3-23.32-3.373-8.8-5.06-17.967-5.06-27.5 0-9.387 1.687-18.627 5.06-27.72 3.373-9.24 8.287-17.453 14.74-24.64 6.6-7.187 14.593-12.98 23.98-17.38 9.387-4.4 20.093-6.6 32.12-6.6zm-.22 141.9c9.827-.44 18.407-2.64 25.74-6.6 7.48-4.107 13.713-9.24 18.7-15.4 4.987-6.307 8.654-13.2 11-20.68 2.493-7.48 3.74-14.887 3.74-22.22 0-8.067-1.466-16.207-4.4-24.42-2.933-8.213-7.113-15.62-12.54-22.22-5.427-6.747-11.953-12.173-19.58-16.28-7.48-4.253-15.913-6.38-25.3-6.38-9.093 0-17.233 2.053-24.42 6.16-7.187 3.96-13.347 9.093-18.48 15.4-4.987 6.307-8.8 13.347-11.44 21.12-2.64 7.773-3.96 15.4-3.96 22.88 0 8.067 1.54 16.207 4.62 24.42 3.08 8.067 7.333 15.4 12.76 22s11.807 11.953 19.14 16.06c7.48 4.107 15.62 6.16 24.42 6.16zm137.223 3.3h1.1v2.2h-31.68v-2.2h1.1c1.174 0 2.2-.367 3.08-1.1.88-.88 1.614-1.907 2.2-3.08a11.845 11.845 0 001.54-3.74c.294-1.32.44-2.567.44-3.74V16.44c0-1.027-.146-2.2-.44-3.52a11.848 11.848 0 00-1.54-3.74c-.586-1.173-1.32-2.127-2.2-2.86-.88-.88-1.906-1.32-3.08-1.32h-1.1V2.8h84.7v23.32h-2.2c0-5.28-1.173-9.167-3.52-11.66-2.2-2.64-5.72-3.96-10.56-3.96h-45.1v123.64c0 1.173.147 2.42.44 3.74a16.23 16.23 0 001.32 3.74c.734 1.173 1.54 2.2 2.42 3.08.88.733 1.907 1.1 3.08 1.1zm142.581-143h30.58V5h-1.32c-1.62 0-2.72.513-3.3 1.54a5.03 5.03 0 00-.88 2.86c0 .733.07 1.393.22 1.98.14.587.29 1.027.44 1.32l37.62 82.28 33.66-79.86c.14-.293.36-.88.66-1.76.29-1.027.44-1.98.44-2.86 0-2.053-.74-3.447-2.2-4.18-1.47-.88-2.57-1.32-3.3-1.32V2.8h23.54V5c-2.64 0-4.7.733-6.16 2.2-1.32 1.32-2.35 2.713-3.08 4.18l-52.8 126.28c-1.76 4.253-4.11 7.407-7.04 9.46-2.94 1.907-6.09 2.86-9.46 2.86-2.2 0-4.18-.367-5.94-1.1-1.76-.587-3.3-1.32-4.62-2.2-1.32-.88-2.35-1.687-3.08-2.42-.59-.733-.88-1.1-.88-1.1l5.5-12.1c1.17 2.787 2.71 4.987 4.62 6.6 1.9 1.467 3.88 2.2 5.94 2.2 1.32 0 2.64-.44 3.96-1.32 1.46-1.027 2.71-2.567 3.74-4.62l8.58-20.9-45.76-100.98c-2.06-4.4-5.28-6.747-9.68-7.04V2.8zm196.97 5.72c-10.86 0-20.32 1.98-28.38 5.94-7.92 3.813-14.52 8.873-19.8 15.18-5.28 6.16-9.24 13.127-11.88 20.9-2.5 7.773-3.74 15.473-3.74 23.1 0 8.653 1.68 17.16 5.06 25.52 3.37 8.213 7.99 15.547 13.86 22 6.01 6.307 12.98 11.44 20.9 15.4 7.92 3.813 16.5 5.72 25.74 5.72 2.64 0 5.72-.293 9.24-.88 3.66-.587 7.26-1.687 10.78-3.3 3.52-1.76 6.74-4.18 9.68-7.26 3.08-3.08 5.42-7.113 7.04-12.1h2.2v24.42c-2.2 0-4.55.293-7.04.88l-7.92 1.98c-3.82 1.027-8.07 1.98-12.76 2.86-4.55.88-9.39 1.32-14.52 1.32-12.76 0-23.98-2.2-33.66-6.6-9.68-4.4-17.75-10.12-24.2-17.16-6.46-7.04-11.3-14.96-14.52-23.76-3.23-8.947-4.84-17.967-4.84-27.06s1.61-18.113 4.84-27.06c3.22-8.947 8.14-16.94 14.74-23.98 6.6-7.187 14.88-12.98 24.86-17.38 9.97-4.4 21.7-6.6 35.2-6.6 4.84 0 9.16.44 12.98 1.32 3.96.88 7.48 1.76 10.56 2.64 2.2.733 4.18 1.32 5.94 1.76 1.9.293 3.74.44 5.5.44v24.42h-2.2c-.88-4.547-2.5-8.287-4.84-11.22-2.35-3.08-5.14-5.427-8.36-7.04-3.08-1.613-6.46-2.713-10.12-3.3-3.52-.733-6.97-1.1-10.34-1.1zm87.44 124.08c-1.32 3.813-3.37 7.333-6.16 10.56-2.78 3.227-6.89 4.84-12.32 4.84h-6.82v-2.2c.88 0 2.06-.22 3.52-.66 1.47-.587 3.01-1.467 4.62-2.64 1.62-1.173 3.23-2.64 4.84-4.4 1.62-1.907 3.01-4.253 4.18-7.04L1324.6 17.1c.74-2.2 1.1-3.887 1.1-5.06 0-2.2-.66-3.887-1.98-5.06-1.17-1.32-2.42-1.98-3.74-1.98V2.8h18.04l49.28 134.64c.74 2.053 2.13 3.96 4.18 5.72 2.06 1.613 4.33 2.493 6.82 2.64v2.2h-31.46v-2.2c1.18 0 2.35-.44 3.52-1.32 1.32-1.027 1.98-2.347 1.98-3.96 0-.44-.14-1.1-.44-1.98l-41.36-113.96-39.38 108.02zM1419.53 2.8h30.58V5h-1.32c-1.61 0-2.71.513-3.3 1.54a5.03 5.03 0 00-.88 2.86c0 .733.07 1.393.22 1.98s.29 1.027.44 1.32l37.62 82.28 33.66-79.86c.15-.293.37-.88.66-1.76.29-1.027.44-1.98.44-2.86 0-2.053-.73-3.447-2.2-4.18-1.47-.88-2.57-1.32-3.3-1.32V2.8h23.54V5c-2.64 0-4.69.733-6.16 2.2-1.32 1.32-2.35 2.713-3.08 4.18l-52.8 126.28c-1.76 4.253-4.11 7.407-7.04 9.46-2.93 1.907-6.09 2.86-9.46 2.86-2.2 0-4.18-.367-5.94-1.1-1.76-.587-3.3-1.32-4.62-2.2-1.32-.88-2.35-1.687-3.08-2.42-.59-.733-.88-1.1-.88-1.1l5.5-12.1c1.17 2.787 2.71 4.987 4.62 6.6 1.91 1.467 3.89 2.2 5.94 2.2 1.32 0 2.64-.44 3.96-1.32 1.47-1.027 2.71-2.567 3.74-4.62l8.58-20.9-45.76-100.98c-2.05-4.4-5.28-6.747-9.68-7.04V2.8zm171.81 143h1.1v2.2h-31.68v-2.2h1.1c1.17 0 2.2-.367 3.08-1.1.88-.88 1.61-1.907 2.2-3.08.73-1.173 1.24-2.42 1.54-3.74.29-1.32.44-2.567.44-3.74V16.44c0-1.027-.15-2.2-.44-3.52a12.11 12.11 0 00-1.54-3.74c-.59-1.173-1.32-2.127-2.2-2.86-.88-.88-1.91-1.32-3.08-1.32h-1.1V2.8h84.7v23.32h-2.2c0-5.28-1.18-9.167-3.52-11.66-2.2-2.64-5.72-3.96-10.56-3.96h-45.1v123.64c0 1.173.14 2.42.44 3.74.29 1.32.73 2.567 1.32 3.74a17.15 17.15 0 002.42 3.08c.88.733 1.9 1.1 3.08 1.1z" fill="#fff"/></svg>